{
  "accessors": [
    {
      "bufferView": 2,
      "componentType": 5126,
      "count": 134,
      "max": [
        0.49498099088668823,
        1,
        0.058195099234580994
      ],
      "min": [
        -0.077091097831726074,
        -0.9123690128326416,
        -0.033563699573278427
      ],
      "type": "VEC3"
    },
    {
      "bufferView": 2,
      "byteOffset": 1608,
      "componentType": 5126,
      "count": 134,
      "max": [
        0.99886322021484375,
        0.99998337030410767,
        0.99996286630630493
      ],
      "min": [
        -0.99451285600662231,
        -0.99028551578521729,
        -0.98127400875091553
      ],
      "type": "VEC3"
    },
    {
      "bufferView": 3,
      "componentType": 5126,
      "count": 134,
      "max": [
        0.9997219443321228,
        0.98554593324661255,
        0.99615681171417236,
        1
      ],
      "min": [
        -0.99980074167251587,
        -0.9875834584236145,
        -0.99428778886795044,
        1
      ],
      "type": "VEC4"
    },
    {
      "bufferView": 1,
      "componentType": 5126,
      "count": 134,
      "max": [
        0.98057299852371216,
        0.99000000953674316
      ],
      "min": [
        0.89410102367401123,
        0.038215000182390213
      ],
      "type": "VEC2"
    },
    {
      "bufferView": 0,
      "componentType": 5125,
      "count": 672,
      "max": [
        133
      ],
      "min": [
        0
      ],
      "type": "SCALAR"
    },
    {
      "bufferView": 2,
      "byteOffset": 3216,
      "componentType": 5126,
      "count": 1127,
      "max": [
        0.4897800087928772,
        0.9919779896736145,
        0.054651498794555664
      ],
      "min": [
        -0.49498099088668823,
        -1,
        -0.058195099234580994
      ],
      "type": "VEC3"
    },
    {
      "bufferView": 2,
      "byteOffset": 16740,
      "componentType": 5126,
      "count": 1127,
      "max": [
        0.99999874830245972,
        0.99992358684539795,
        1
      ],
      "min": [
        -0.99999678134918213,
        -0.99995213747024536,
        -1
      ],
      "type": "VEC3"
    },
    {
      "bufferView": 3,
      "byteOffset": 2144,
      "componentType": 5126,
      "count": 1127,
      "max": [
        0.99999916553497314,
        1,
        0.99958747625350952,
        1
      ],
      "min": [
        -0.99613285064697266,
        -0.9412117600440979,
        -0.99994069337844849,
        1
      ],
      "type": "VEC4"
    },
    {
      "bufferView": 1,
      "byteOffset": 1072,
      "componentType": 5126,
      "count": 1127,
      "max": [
        0.97461801767349243,
        0.99000000953674316
      ],
      "min": [
        0.0099999997764825821,
        0.0099999997764825821
      ],
      "type": "VEC2"
    },
    {
      "bufferView": 0,
      "byteOffset": 2688,
      "componentType": 5125,
      "count": 5964,
      "max": [
        1126
      ],
      "min": [
        0
      ],
      "type": "SCALAR"
    }
  ],
  "asset": {
    "extras": {
      "author": "shedmon (https://sketchfab.com/shedmon)",
      "license": "CC-BY-4.0 (http://creativecommons.org/licenses/by/4.0/)",
      "source": "https://sketchfab.com/3d-models/smartphone-21e953e3d4484aac88ca108da3291b20",
      "title": "SmartPhone"
    },
    "generator": "Sketchfab-7.31.0",
    "version": "2.0"
  },
  "bufferViews": [
    {
      "buffer": 0,
      "byteLength": 26544,
      "byteOffset": 0,
      "name": "floatBufferViews",
      "target": 34963
    },
    {
      "buffer": 0,
      "byteLength": 10088,
      "byteOffset": 26544,
      "byteStride": 8,
      "name": "floatBufferViews",
      "target": 34962
    },
    {
      "buffer": 0,
      "byteLength": 30264,
      "byteOffset": 36632,
      "byteStride": 12,
      "name": "floatBufferViews",
      "target": 34962
    },
    {
      "buffer": 0,
      "byteLength": 20176,
      "byteOffset": 66896,
      "byteStride": 16,
      "name": "floatBufferViews",
      "target": 34962
    }
  ],
  "buffers": [
    {
      "byteLength": 87072,
      "uri": "scene.bin"
    }
  ],
  "images": [
    {
      "uri": "textures/Default_baseColor.jpeg"
    },
    {
      "uri": "textures/Default_metallicRoughness.png"
    },
    {
      "uri": "textures/Default_normal.png"
    }
  ],
  "materials": [
    {
      "doubleSided": true,
      "emissiveFactor": [
        0,
        0,
        0
      ],
      "name": "Default",
      "normalTexture": {
        "index": 2,
        "scale": 1,
        "texCoord": 0
      },
      "occlusionTexture": {
        "index": 1,
        "strength": 1,
        "texCoord": 0
      },
      "pbrMetallicRoughness": {
        "baseColorFactor": [
          1,
          1,
          1,
          1
        ],
        "baseColorTexture": {
          "index": 0,
          "texCoord": 0
        },
        "metallicFactor": 1,
        "metallicRoughnessTexture": {
          "index": 1,
          "texCoord": 0
        },
        "roughnessFactor": 1
      }
    }
  ],
  "meshes": [
    {
      "name": "defaultMaterial",
      "primitives": [
        {
          "attributes": {
            "NORMAL": 1,
            "POSITION": 0,
            "TANGENT": 2,
            "TEXCOORD_0": 3
          },
          "indices": 4,
          "material": 0,
          "mode": 4
        }
      ]
    },
    {
      "name": "defaultMaterial",
      "primitives": [
        {
          "attributes": {
            "NORMAL": 6,
            "POSITION": 5,
            "TANGENT": 7,
            "TEXCOORD_0": 8
          },
          "indices": 9,
          "material": 0,
          "mode": 4
        }
      ]
    }
  ],
  "nodes": [
    {
      "children": [
        1
      ],
      "name": "RootNode (gltf orientation matrix)",
      "rotation": [
        -0.70710678118654746,
        -0,
        -0,
        0.70710678118654757
      ]
    },
    {
      "children": [
        2
      ],
      "name": "RootNode (model correction matrix)"
    },
    {
      "children": [
        3,
        5
      ],
      "matrix": [
        1,
        0,
        0,
        0,
        0,
        -4.3711390063094768e-08,
        0.999999999999999,
        0,
        0,
        -0.999999999999999,
        -4.3711390063094768e-08,
        0,
        0,
        0,
        0,
        1
      ],
      "name": "Collada visual scene group"
    },
    {
      "children": [
        4
      ],
      "name": "g"
    },
    {
      "mesh": 0,
      "name": "defaultMaterial"
    },
    {
      "children": [
        6
      ],
      "name": "g"
    },
    {
      "mesh": 1,
      "name": "defaultMaterial"
    }
  ],
  "samplers": [
    {
      "magFilter": 9729,
      "minFilter": 9987,
      "wrapS": 10497,
      "wrapT": 10497
    }
  ],
  "scene": 0,
  "scenes": [
    {
      "name": "OSG_Scene",
      "nodes": [
        0
      ]
    }
  ],
  "textures": [
    {
      "sampler": 0,
      "source": 0
    },
    {
      "sampler": 0,
      "source": 1
    },
    {
      "sampler": 0,
      "source": 2
    }
  ]
}

